<svg width="48" height="48" viewBox="0 0 48 48" fill="none" xmlns="http://www.w3.org/2000/svg">
<path d="M14 33C13.9999 31.4603 14.4441 29.9533 15.2793 28.6598C16.1146 27.3664 17.3053 26.3414 18.7086 25.708C20.1119 25.0745 21.6682 24.8595 23.1908 25.0886C24.7133 25.3178 26.1373 25.9815 27.292 27" stroke="#001C1C" stroke-width="1.5" stroke-linecap="round" stroke-linejoin="round"/>
<path d="M22 25C24.7614 25 27 22.7614 27 20C27 17.2386 24.7614 15 22 15C19.2386 15 17 17.2386 17 20C17 22.7614 19.2386 25 22 25Z" stroke="#001C1C" stroke-width="1.5" stroke-linecap="round" stroke-linejoin="round"/>
<path d="M31 28V34" stroke="#FF2E4C" stroke-width="1.5" stroke-linecap="round" stroke-linejoin="round"/>
<path d="M34 31H28" stroke="#FF2E4C" stroke-width="1.5" stroke-linecap="round" stroke-linejoin="round"/>
</svg>
