<svg width="48" height="48" viewBox="0 0 48 48" fill="none" xmlns="http://www.w3.org/2000/svg">
<rect width="48" height="48" rx="10" fill="white"/>
<path d="M16.2395 17.318H20.0555C20.5955 17.318 21.0275 17.33 21.3515 17.354C21.6875 17.378 22.0415 17.432 22.4135 17.516C22.7975 17.6 23.1035 17.726 23.3315 17.894C23.5715 18.062 23.7755 18.29 23.9435 18.578C24.0995 18.854 24.1775 19.202 24.1775 19.622V22.052C24.1775 23.024 23.7995 23.726 23.0435 24.158C22.2995 24.578 21.1955 24.788 19.7315 24.788H17.9855V29H16.2395V17.318ZM19.9655 23.69C20.7215 23.69 21.3275 23.552 21.7835 23.276C22.2395 23 22.4675 22.562 22.4675 21.962V19.838C22.4675 19.514 22.3835 19.25 22.2155 19.046C22.0475 18.83 21.8075 18.68 21.4955 18.596C21.1955 18.524 20.9435 18.476 20.7395 18.452C20.5355 18.428 20.2655 18.416 19.9295 18.416H17.9675V23.69H19.9655ZM28.4672 29.126L25.1012 20.288H26.8652L29.2952 27.398H29.3312L31.5272 20.288H33.1652L28.7912 32.744H27.0992L28.4672 29.126Z" fill="#001C1C"/>
</svg>
